<?xml version="1.0" encoding="UTF-8" standalone="no"?><!DOCTYPE svg PUBLIC "-//W3C//DTD SVG 1.1//EN" "http://www.w3.org/Graphics/SVG/1.1/DTD/svg11.dtd"><svg width="100%" height="100%" viewBox="0 0 267 267" version="1.1" xmlns="http://www.w3.org/2000/svg" xmlns:xlink="http://www.w3.org/1999/xlink" xml:space="preserve" xmlns:serif="http://www.serif.com/" style="fill-rule:evenodd;clip-rule:evenodd;stroke-linejoin:round;stroke-miterlimit:2;"><g><path d="M116.95,116.083c0,-7.916 -5.387,-7.916 -5.387,-7.916l-22.171,-0l-0,16.991l20.796,0c3.595,0 6.762,-1.145 6.762,-9.075Z" style="fill:#2e9cca;fill-rule:nonzero;"/><path d="M168.308,125.158c-11.758,0 -13.395,11.734 -13.395,11.734l25.012,-0c0,-0 0.154,-11.734 -11.617,-11.734Z" style="fill:#2e9cca;fill-rule:nonzero;"/><path d="M111.563,136.892l-22.159,-0l0,20.35l19.629,-0c0.334,-0 0.825,0.016 1.413,-0c3.154,-0.071 9.15,-0.979 9.15,-9.892c-0,-10.558 -8.034,-10.458 -8.034,-10.458Z" style="fill:#2e9cca;fill-rule:nonzero;"/><path d="M133.333,29.892c-57.037,-0 -103.441,46.404 -103.441,103.441c-0,57.038 46.404,103.442 103.441,103.442c57.038,0 103.442,-46.404 103.442,-103.442c0,-57.037 -46.404,-103.441 -103.442,-103.441Zm18.3,69.229l31.417,-0l0,9.379l-31.417,0l0,-9.379Zm-15.879,49.183c0,23.238 -24.192,22.475 -24.192,22.475l-39.616,0l-0,-76.146l39.616,0c12.046,0 21.551,6.655 21.551,20.28c-0,13.62 -11.617,14.487 -11.617,14.487c15.312,0 14.258,18.904 14.258,18.904Zm58.767,-1.25l-39.458,0c-0,14.15 13.4,13.254 13.4,13.254c12.654,0 12.208,-8.187 12.208,-8.187l13.408,-0c0,21.737 -26.058,20.246 -26.058,20.246c-31.263,-0 -29.254,-29.105 -29.254,-29.105c-0,0 -0.025,-29.258 29.254,-29.258c30.821,0 26.496,33.05 26.5,33.05Z" style="fill:#2e9cca;fill-rule:nonzero;"/></g></svg>