<?xml version="1.0" encoding="UTF-8" standalone="no"?><!DOCTYPE svg PUBLIC "-//W3C//DTD SVG 1.1//EN" "http://www.w3.org/Graphics/SVG/1.1/DTD/svg11.dtd"><svg width="100%" height="100%" viewBox="0 0 280 280" version="1.1" xmlns="http://www.w3.org/2000/svg" xmlns:xlink="http://www.w3.org/1999/xlink" xml:space="preserve" xmlns:serif="http://www.serif.com/" style="fill-rule:evenodd;clip-rule:evenodd;stroke-linejoin:round;stroke-miterlimit:2;"><path d="M211.821,200.575l-0,-48.804c-0,-26.146 -13.958,-38.313 -32.567,-38.313c-15.016,0 -21.746,8.263 -25.496,14.059l0,-12.059l-28.291,0c0.375,7.988 -0,85.113 -0,85.113l28.291,-0l0,-47.534c0,-2.537 0.184,-5.079 0.934,-6.895c2.041,-5.084 6.696,-10.346 14.508,-10.346c10.242,-0 14.333,7.804 14.333,19.242l0,45.537l28.288,0Zm-116.158,-96.733c9.862,-0 16.008,-6.542 16.008,-14.713c-0.183,-8.346 -6.146,-14.7 -15.821,-14.7c-9.675,0 -16.004,6.35 -16.004,14.7c-0,8.171 6.142,14.713 15.637,14.713l0.18,-0Zm46.004,162.825c-69.034,-0 -125,-55.967 -125,-125c-0,-69.038 55.966,-125 125,-125c69.033,-0 125,55.962 125,125c-0,69.033 -55.967,125 -125,125Zm-31.859,-66.096l0,-85.113l-28.287,0l-0,85.113l28.287,-0Z" style="fill:#2e9cca;"/></svg>