<?xml version="1.0" encoding="UTF-8" standalone="no"?><!DOCTYPE svg PUBLIC "-//W3C//DTD SVG 1.1//EN" "http://www.w3.org/Graphics/SVG/1.1/DTD/svg11.dtd"><svg width="100%" height="100%" viewBox="0 0 3600 3600" version="1.1" xmlns="http://www.w3.org/2000/svg" xmlns:xlink="http://www.w3.org/1999/xlink" xml:space="preserve" xmlns:serif="http://www.serif.com/" style="fill-rule:evenodd;clip-rule:evenodd;stroke-linejoin:round;stroke-miterlimit:2;"><g><g><path d="M1878.75,1686.67c1.667,-5 2.5,-7.917 3.75,-11.25c0.833,-2.5 2.5,-4.584 4.167,-7.084c68.333,7.917 135,21.25 195.833,53.334c52.917,27.916 92.083,66.666 96.25,132.916c10.417,-6.25 19.167,-12.5 28.75,-16.666c70.833,-31.667 155.417,23.75 158.75,104.166c2.917,70.417 -34.583,117.5 -90,153.334c-15.417,10 -32.083,20.416 -49.583,26.25c-57.084,18.75 -95.834,59.583 -131.667,104.166c-4.167,5.417 -8.75,10.834 -16.667,13.75c5.417,-7.916 10.834,-15.833 16.25,-24.166c38.75,-60.834 84.584,-114.167 146.25,-154.167c35.417,-22.5 60.417,-54.167 64.584,-99.167c4.583,-51.666 -34.584,-64.583 -70,-49.583c-32.917,13.75 -57.5,37.917 -65,75.417c-21.25,103.75 -56.25,202.083 -125,284.583c-56.25,67.083 -123.334,117.917 -213.75,129.583c-93.75,12.084 -173.75,-19.583 -241.25,-83.333c-25,-23.75 -46.667,-50.833 -70.834,-77.5c-18.75,27.917 -14.166,57.083 -2.083,85.417c17.5,40.833 49.167,70 88.333,87.083c145.834,64.167 287.5,55.417 422.5,-30.833c15.417,-10 28.334,-23.75 42.5,-35.417c1.25,1.25 2.917,2.5 4.167,4.167c-17.917,18.333 -33.75,38.75 -53.75,54.583c-82.917,65 -179.167,85 -282.083,79.583c-72.917,-3.75 -141.25,-23.75 -199.584,-68.75c-19.166,-15 -36.666,-34.166 -50,-55c-26.25,-40 -21.25,-76.666 10.417,-112.5c5,-5.416 11.25,-10 17.917,-15.416c-40.417,-60.834 -69.167,-124.584 -83.334,-193.334c-12.5,-60.833 -20,-122.916 -25.416,-185c-2.917,-31.25 17.5,-56.25 37.916,-78.75c40.417,-44.166 92.5,-69.583 148.75,-83.333c55,-13.333 111.667,-19.583 167.917,-27.5c7.917,-1.25 17.083,6.25 25.417,9.167c-0.834,1.666 -1.25,3.75 -2.084,5.416c-34.166,2.5 -68.333,3.75 -102.083,7.917c-67.5,7.917 -132.5,24.167 -189.583,62.917c-16.667,11.25 -30.834,25.416 -45.417,39.583c-34.167,34.167 -33.333,76.667 -27.917,120.417c13.75,111.25 46.667,215.416 112.084,307.5c50,70.416 113.333,123.75 200,142.916c147.5,32.084 299.583,-61.25 340.833,-211.25c9.583,-34.583 14.583,-70.833 15.833,-106.666c1.667,-42.917 -16.666,-55.834 -57.5,-42.5c-110.833,36.25 -224.583,43.75 -339.583,31.25c-68.75,-7.5 -135,-24.167 -194.167,-62.917c-27.5,-17.917 -50.833,-40.417 -67.083,-70c2.083,-0.833 3.75,-1.667 4.167,-1.25c52.083,65 125,90.417 202.5,104.167c126.666,22.083 251.666,14.583 372.5,-32.5c45.416,-17.5 86.25,-41.667 115,-82.084c31.25,-44.166 26.25,-84.166 -15.417,-119.166c-45.833,-38.75 -101.667,-55.417 -158.75,-68.75c-23.333,-5.417 -47.5,-8.75 -73.75,-13.75Z" style="fill-rule:nonzero;"/><path d="M1979.17,1907.92c-0.834,47.916 -18.334,72.916 -63.334,82.083c-130.416,27.5 -259.166,22.917 -383.75,-28.333c-45,-18.334 -50,-32.084 -19.583,-70c18.75,-22.917 42.917,-45.417 69.583,-56.667c146.667,-61.667 294.167,-59.583 439.167,7.917c21.25,10 39.583,27.5 56.25,45c15.417,16.25 11.25,30 -7.083,43.333c-47.917,35.417 -52.5,34.583 -91.25,-23.333Z" style="fill-rule:nonzero;"/><path d="M1845.42,1030c-17.917,-2.917 -30.417,-9.583 -27.084,-28.333c2.917,-17.084 24.584,-28.75 42.084,-23.75c39.583,10.833 50,65 18.333,96.666c-40.833,40.417 -111.667,18.75 -129.167,-39.583c-14.583,-48.75 6.25,-98.333 50.834,-122.083c47.5,-25 105,-12.5 140,31.25c37.083,45.833 37.916,109.583 0.833,164.583c-47.083,70.833 -117.083,91.667 -197.5,86.25c-30.417,-2.083 -60.417,-8.75 -90.417,-12.5c-18.333,-2.5 -37.5,-5 -55.833,-4.167c-38.333,1.25 -70,28.75 -81.667,68.75c-9.583,32.5 4.167,69.167 33.334,89.584c34.583,24.166 77.083,26.666 106.666,2.916c17.917,-14.583 33.334,-33.333 47.917,-51.666c32.5,-41.667 72.083,-64.584 125.833,-54.584c39.167,7.5 66.667,30.417 77.5,69.584c15,53.75 4.167,102.083 -36.25,141.25c-18.333,17.916 -39.583,32.916 -58.333,50c-11.667,10.833 -22.917,22.083 -32.5,35c-17.917,24.166 -15.833,36.666 6.25,57.5c14.583,13.75 30.833,26.25 43.333,41.666c28.75,35.834 21.667,80.834 -17.083,106.25c2.917,-6.25 4.583,-9.583 6.25,-12.916c13.75,-32.084 5.833,-62.917 -22.917,-82.5c-17.083,-11.667 -36.25,-20.417 -54.166,-30.834c-39.584,-22.916 -45.834,-52.916 -14.167,-86.666c18.333,-19.584 42.083,-33.75 63.333,-50c19.167,-15 40,-27.917 57.084,-45c32.5,-31.667 37.916,-74.167 17.083,-114.584c-24.167,-47.083 -83.333,-57.083 -120.833,-18.75c-17.5,17.917 -31.25,38.75 -47.084,57.917c-35.833,42.5 -92.916,60.417 -140.416,44.167c-54.167,-18.75 -89.584,-66.667 -90.417,-122.5c-0.833,-58.75 30.417,-108.334 81.667,-128.334c36.25,-14.166 73.75,-8.75 110.833,-3.333c29.583,4.167 58.75,10.417 88.333,13.75c57.5,6.667 110.417,-5.417 154.584,-45.833c38.333,-35.417 45.416,-90 17.916,-130.417c-25,-36.667 -75.416,-45 -107.083,-17.917c-22.917,20 -26.25,52.084 -7.5,72.084c12.5,12.5 23.75,12.5 40.417,-2.917Z" style="fill-rule:nonzero;"/><path d="M1375,2109.17c-25,25.833 -51.25,47.083 -70,73.75c-60.833,87.5 -47.083,202.916 31.25,288.333c73.333,80 165.833,127.083 269.167,152.5c171.666,42.083 340.416,32.5 502.916,-39.583c82.084,-36.667 151.667,-89.167 191.25,-173.75c3.334,-6.667 5.834,-14.167 8.75,-20.834c2.917,-6.666 5.417,-13.75 9.584,-20c-11.25,64.584 -44.584,117.084 -90.834,161.667c-86.666,83.333 -192.916,131.25 -309.583,150.417c-190.417,31.666 -372.083,1.666 -539.167,-97.084c-75.416,-44.583 -129.583,-107.5 -150.416,-195.833c-22.5,-96.667 15.416,-195 98.333,-250.833c15,-10 30.833,-17.917 48.75,-28.75Z" style="fill-rule:nonzero;"/><path d="M1576.25,2248.33c27.917,15.834 52.917,32.917 80.417,44.584c43.75,18.333 90.833,20 137.083,16.666c37.083,-2.5 65.417,-23.333 73.75,-60c9.583,-40.416 12.917,-82.083 19.167,-122.916c2.5,-16.25 5.416,-32.917 10.833,-48.334c6.25,-18.75 21.25,-27.916 40.417,-31.666c34.583,-7.084 68.75,-14.584 102.916,-23.334c27.917,-7.083 40.417,-1.25 39.584,27.084c-5.417,186.666 -147.084,334.583 -343.334,298.333c-65.833,-12.083 -115,-51.667 -160.833,-100.417Z" style="fill-rule:nonzero;"/><path d="M1757.92,1340c12.5,-2.917 25.833,-9.167 37.083,-7.083c13.75,2.916 20,16.25 16.667,31.25c-3.334,15.416 -20.417,26.666 -36.25,24.166c-17.5,-2.5 -28.75,-12.083 -35.417,-28.333c-7.917,-20 -4.583,-38.333 8.75,-54.583c22.917,-28.334 62.083,-30.834 90.417,-6.667c32.083,27.083 38.75,77.083 9.166,107.917c-23.333,24.583 -54.166,42.5 -81.666,63.333c-18.334,13.75 -38.334,25.417 -54.584,41.25c-36.666,36.667 -30,79.167 15,104.583c14.584,8.334 30.417,13.75 45,21.25c26.25,13.334 37.5,32.084 34.584,58.334c-8.334,-37.5 -37.917,-50.417 -68.75,-62.5c-12.084,-4.584 -24.167,-10 -35.417,-17.084c-40.417,-24.166 -49.583,-70 -16.25,-103.75c24.583,-24.583 55.833,-42.5 83.75,-63.75c22.5,-17.083 46.667,-32.916 65.833,-53.333c25,-26.667 18.75,-64.583 -10,-85.833c-14.166,-10.417 -29.166,-12.5 -45,-5.417c-14.583,7.5 -21.666,19.583 -22.916,36.25Z" style="fill-rule:nonzero;"/><path d="M1845,1214.17c73.75,6.25 122.083,73.75 111.667,150.416c-6.25,46.25 -29.167,83.334 -62.5,114.584c-16.667,15.833 -34.584,30 -50.417,46.666c-20.417,21.667 -20,32.917 -0.833,55.417c34.583,40.417 40.833,79.583 18.333,115.833c-1.667,2.917 -4.167,5.417 -6.25,7.917c-1.25,-1.667 -2.917,-2.917 -2.5,-3.333c22.5,-38.75 7.917,-68.75 -21.667,-95.417c-7.5,-7.083 -15.833,-13.75 -22.916,-21.25c-25.417,-26.25 -25,-46.667 2.916,-70c17.917,-15 37.5,-28.333 55.834,-43.333c48.333,-39.584 74.583,-89.584 64.166,-153.334c-7.5,-47.083 -30.833,-82.5 -78.333,-98.333c-2.083,-0.417 -3.333,-2.5 -7.5,-5.833Z" style="fill-rule:nonzero;"/><path d="M1590.42,1187.92c-75.834,55.833 -68.334,105.416 21.666,160c-39.166,4.166 -78.75,-25.417 -86.666,-65.417c-7.5,-40 17.5,-87.5 65,-94.583Z" style="fill-rule:nonzero;"/></g></g></svg>